<svg xmlns="http://www.w3.org/2000/svg" width="1280" height="720" viewBox="0 0 1280 720">
  <defs>
    <linearGradient id="bg" x1="0%" y1="0%" x2="100%" y2="100%">
      <stop offset="0%" style="stop-color:#f8fafc"/>
      <stop offset="50%" style="stop-color:#f1f5f9"/>
      <stop offset="100%" style="stop-color:#f8fafc"/>
    </linearGradient>
    <linearGradient id="accent" x1="0%" y1="0%" x2="100%" y2="0%">
      <stop offset="0%" style="stop-color:#4f46e5"/>
      <stop offset="100%" style="stop-color:#7c3aed"/>
    </linearGradient>
    <linearGradient id="green" x1="0%" y1="0%" x2="100%" y2="0%">
      <stop offset="0%" style="stop-color:#059669"/>
      <stop offset="100%" style="stop-color:#10b981"/>
    </linearGradient>
    <filter id="shadow"><feDropShadow dx="0" dy="4" stdDeviation="8" flood-color="#000" flood-opacity="0.1"/></filter>
  </defs>
  <rect width="1280" height="720" fill="url(#bg)"/>
  <pattern id="grid" width="40" height="40" patternUnits="userSpaceOnUse"><path d="M 40 0 L 0 0 0 40" fill="none" stroke="#cbd5e1" stroke-width="0.5" opacity="0.4"/></pattern>
  <rect width="1280" height="720" fill="url(#grid)"/>
  <circle cx="100" cy="100" r="200" fill="#6366f1" opacity="0.06"/>
  <circle cx="1180" cy="620" r="250" fill="#8b5cf6" opacity="0.06"/>
  <circle cx="640" cy="360" r="300" fill="#10b981" opacity="0.04"/>
  <rect x="0" y="0" width="1280" height="4" fill="url(#accent)"/>
  <g transform="translate(100, 200)" filter="url(#shadow)">
    <rect width="120" height="120" rx="24" fill="#e0e7ff"/>
    <rect x="4" y="4" width="112" height="112" rx="20" fill="none" stroke="url(#accent)" stroke-width="2"/>
    <g transform="translate(30, 35)"><path d="M15 45 C15 30, 30 20, 45 20 L50 20" stroke="#6366f1" stroke-width="5" fill="none" stroke-linecap="round"/><path d="M55 50 C55 65, 40 75, 25 75 L20 75" stroke="#6366f1" stroke-width="5" fill="none" stroke-linecap="round"/><circle cx="20" cy="20" r="6" fill="#4f46e5"/><circle cx="60" cy="80" r="6" fill="#4f46e5"/><line x1="30" y1="40" x2="50" y2="60" stroke="#818cf8" stroke-width="3" stroke-linecap="round"/></g>
  </g>
  <g transform="translate(260, 215)" filter="url(#shadow)">
    <rect width="90" height="90" rx="18" fill="#d1fae5"/>
    <rect x="3" y="3" width="84" height="84" rx="16" fill="none" stroke="url(#green)" stroke-width="2"/>
    <text x="45" y="58" text-anchor="middle" font-family="monospace" font-size="28" font-weight="bold" fill="#059669">S</text>
  </g>
  <text x="385" y="275" font-family="monospace" font-size="36" fill="#94a3b8">+</text>
  <text x="100" y="400" font-family="'Segoe UI', Arial, sans-serif" font-size="64" font-weight="800" fill="#1e293b">Filament<tspan fill="url(#accent)">Shlink</tspan></text>
  <text x="100" y="450" font-family="'Segoe UI', Arial, sans-serif" font-size="22" fill="#64748b">Self-hosted URL Shortener Management for Filament</text>
  <g transform="translate(100, 490)">
    <rect width="180" height="40" rx="20" fill="#e0e7ff" stroke="#6366f1" stroke-width="1"/><text x="90" y="26" text-anchor="middle" font-family="'Segoe UI', Arial, sans-serif" font-size="14" fill="#4f46e5">Short URLs</text>
    <g transform="translate(200, 0)"><rect width="140" height="40" rx="20" fill="#d1fae5" stroke="#10b981" stroke-width="1"/><text x="70" y="26" text-anchor="middle" font-family="'Segoe UI', Arial, sans-serif" font-size="14" fill="#059669">Tags</text></g>
    <g transform="translate(360, 0)"><rect width="200" height="40" rx="20" fill="#ede9fe" stroke="#8b5cf6" stroke-width="1"/><text x="100" y="26" text-anchor="middle" font-family="'Segoe UI', Arial, sans-serif" font-size="14" fill="#7c3aed">Dashboard Widget</text></g>
    <g transform="translate(580, 0)"><rect width="210" height="40" rx="20" fill="#fef3c7" stroke="#f59e0b" stroke-width="1"/><text x="105" y="26" text-anchor="middle" font-family="'Segoe UI', Arial, sans-serif" font-size="14" fill="#d97706">Multi-Client</text></g>
    <g transform="translate(810, 0)"><rect width="160" height="40" rx="20" fill="#fce7f3" stroke="#ec4899" stroke-width="1"/><text x="80" y="26" text-anchor="middle" font-family="'Segoe UI', Arial, sans-serif" font-size="14" fill="#db2777">Settings</text></g>
  </g>
  <g transform="translate(100, 570)"><rect width="140" height="32" rx="16" fill="#e2e8f0"/><text x="70" y="22" text-anchor="middle" font-family="monospace" font-size="13" fill="#64748b">Filament ^5.0</text></g>
  <g transform="translate(260, 570)"><rect width="160" height="32" rx="16" fill="#e2e8f0"/><text x="80" y="22" text-anchor="middle" font-family="monospace" font-size="13" fill="#64748b">Laravel ^11|^12|^13</text></g>
  <g transform="translate(440, 570)"><rect width="130" height="32" rx="16" fill="#e2e8f0"/><text x="65" y="22" text-anchor="middle" font-family="monospace" font-size="13" fill="#64748b">PHP ^8.3</text></g>
  <g transform="translate(750, 180)" filter="url(#shadow)">
    <rect width="430" height="280" rx="16" fill="#ffffff" stroke="#e2e8f0" stroke-width="1"/>
    <rect width="430" height="36" rx="16" fill="#f8fafc"/><rect y="0" width="430" height="18" rx="0" fill="#f8fafc"/>
    <circle cx="24" cy="18" r="5" fill="#ef4444"/><circle cx="44" cy="18" r="5" fill="#eab308"/><circle cx="64" cy="18" r="5" fill="#22c55e"/>
    <text x="215" y="23" text-anchor="middle" font-family="monospace" font-size="11" fill="#94a3b8">PanelProvider.php</text>
    <text x="20" y="65" font-family="monospace" font-size="12" fill="#9333ea">use</text><text x="56" y="65" font-family="monospace" font-size="12" fill="#475569">Adereksisusanto\FilamentShlink\</text>
    <text x="20" y="82" font-family="monospace" font-size="12" fill="#475569">    FilamentShlinkPlugin;</text>
    <text x="20" y="112" font-family="monospace" font-size="12" fill="#94a3b8">// Register plugin</text>
    <text x="20" y="135" font-family="monospace" font-size="12" fill="#9333ea">public function</text><text x="162" y="135" font-family="monospace" font-size="12" fill="#2563eb">panel</text><text x="196" y="135" font-family="monospace" font-size="12" fill="#475569">(Panel $panel): Panel</text>
    <text x="20" y="160" font-family="monospace" font-size="12" fill="#475569">{</text>
    <text x="30" y="180" font-family="monospace" font-size="12" fill="#9333ea">return</text><text x="75" y="180" font-family="monospace" font-size="12" fill="#475569">$panel</text>
    <text x="20" y="200" font-family="monospace" font-size="12" fill="#475569">    -></text><text x="42" y="200" font-family="monospace" font-size="12" fill="#2563eb">plugin</text><text x="82" y="200" font-family="monospace" font-size="12" fill="#475569">(</text>
    <text x="90" y="200" font-family="monospace" font-size="12" fill="#2563eb">FilamentShlinkPlugin</text><text x="252" y="200" font-family="monospace" font-size="12" fill="#475569">::</text><text x="268" y="200" font-family="monospace" font-size="12" fill="#2563eb">make</text><text x="298" y="200" font-family="monospace" font-size="12" fill="#475569">())</text>
    <text x="20" y="225" font-family="monospace" font-size="12" fill="#475569">    -></text><text x="42" y="225" font-family="monospace" font-size="12" fill="#2563eb">multiClient</text><text x="122" y="225" font-family="monospace" font-size="12" fill="#475569">()</text><text x="140" y="225" font-family="monospace" font-size="12" fill="#94a3b8">;</text>
    <text x="20" y="250" font-family="monospace" font-size="12" fill="#475569">}</text>
  </g>
  <rect x="0" y="640" width="1280" height="80" fill="#ffffff" opacity="0.9"/>
  <rect x="0" y="640" width="1280" height="1" fill="#e2e8f0"/>
  <text x="100" y="685" font-family="'Segoe UI', Arial, sans-serif" font-size="16" fill="#64748b">by</text>
  <text x="128" y="685" font-family="'Segoe UI', Arial, sans-serif" font-size="16" font-weight="600" fill="#1e293b">Ade Reksi Susanto</text>
  <g transform="translate(350, 665)"><rect width="320" height="36" rx="18" fill="#e2e8f0"/><text x="160" y="24" text-anchor="middle" font-family="monospace" font-size="13" fill="#4f46e5">github.com/adereksisusanto/filament-shlink</text></g>
  <g transform="translate(740, 665)"><rect width="420" height="36" rx="18" fill="#d1fae5" stroke="#10b981" stroke-width="1"/><text x="20" y="24" font-family="monospace" font-size="12" fill="#64748b">$</text><text x="36" y="24" font-family="monospace" font-size="13" fill="#059669">composer require adereksisusanto/filament-shlink</text></g>
</svg>